<svg width="25" height="25" viewBox="0 0 25 25" fill="none" xmlns="http://www.w3.org/2000/svg">
<path fill-rule="evenodd" clip-rule="evenodd" d="M12.499 0.307892C5.59725 0.307892 0 5.9044 0 12.8085C0 18.3305 3.58135 23.0161 8.54857 24.6698C9.17398 24.7842 9.4019 24.3981 9.4019 24.0666C9.4019 23.7696 9.39102 22.9838 9.3845 21.941C5.90751 22.6961 5.17391 20.2651 5.17391 20.2651C4.60528 18.8209 3.78572 18.4364 3.78572 18.4364C2.65077 17.6614 3.87164 17.6767 3.87164 17.6767C5.12629 17.765 5.78624 18.9651 5.78624 18.9651C6.90124 20.8751 8.71224 20.3234 9.42437 20.0034C9.53791 19.1961 9.861 18.6451 10.2178 18.3328C7.44225 18.0166 4.52391 16.9446 4.52391 12.1547C4.52391 10.7895 5.0112 9.67449 5.8108 8.80046C5.68181 8.48429 5.25291 7.21349 5.9337 5.49227C5.9337 5.49227 6.98269 5.15619 9.37077 6.77306C10.3676 6.49602 11.4373 6.3579 12.5001 6.35252C13.5622 6.35688 14.6311 6.49609 15.6295 6.77306C18.016 5.15619 19.0635 5.49227 19.0635 5.49227C19.7457 7.21349 19.3167 8.48429 19.1885 8.80046C19.9897 9.67449 20.4731 10.7895 20.4731 12.1547C20.4731 16.9569 17.5502 18.0135 14.7662 18.3228C15.2143 18.7088 15.6141 19.4716 15.6141 20.638C15.6141 22.3086 15.5989 23.6568 15.5989 24.0666C15.5989 24.4012 15.8245 24.7903 16.4583 24.6682C21.4217 23.0115 25 18.3297 25 12.8085C25 5.9044 19.4028 0.307892 12.4987 0.307892" fill="#B8B8B8"/>
</svg>
