<svg width="572" height="313" viewBox="0 0 572 313" fill="none" xmlns="http://www.w3.org/2000/svg">
<g filter="url(#filter0_d_806_9)">
<path d="M281.933 237C286.061 232.284 276.536 223.873 281.463 220.895L281.933 212C279.346 218.835 276.887 230.8 281.933 237Z" fill="#F2F2F2"/>
</g>
<g filter="url(#filter1_d_806_9)">
<path d="M263.034 240C262.403 236.782 270.805 229.244 264.863 230.32L263.034 224.942C263.034 207.195 266.691 227.631 263.034 240Z" fill="#E6E6E6"/>
</g>
<g filter="url(#filter2_d_806_9)">
<path d="M270.905 228C270.182 225.222 272.656 223.365 273 220.571L270.905 215C267.768 218.554 274.048 215.464 270.905 228Z" fill="#C4C4C4"/>
</g>
<path d="M295 242.529V247.627C294.998 248.032 294.836 248.42 294.548 248.707C294.261 248.993 293.872 249.155 293.465 249.157H290.907C290.84 249.157 290.773 249.17 290.711 249.195C290.649 249.221 290.592 249.258 290.545 249.306C290.497 249.353 290.459 249.409 290.434 249.471C290.408 249.533 290.395 249.6 290.395 249.667V291.471C290.393 291.876 290.231 292.263 289.943 292.55C289.656 292.836 289.267 292.998 288.86 293H257.651C257.244 293 256.854 292.838 256.566 292.552C256.278 292.265 256.117 291.876 256.116 291.471V249.667C256.116 249.532 256.062 249.402 255.966 249.307C255.87 249.211 255.74 249.157 255.605 249.157H252.535C252.128 249.157 251.738 248.995 251.45 248.709C251.162 248.422 251 248.033 251 247.627V242.529C251 242.329 251.039 242.13 251.116 241.944C251.193 241.758 251.306 241.589 251.449 241.447C251.592 241.305 251.761 241.193 251.947 241.116C252.134 241.039 252.333 241 252.535 241H293.465C293.872 241.001 294.262 241.163 294.549 241.449C294.837 241.736 294.999 242.124 295 242.529Z" fill="#F2F2F2"/>
<path d="M290 250H257V251H290V250Z" fill="#E6E6E6"/>
<path d="M290 272.469C278.79 277.151 267.458 277.203 256 272.469V261.804C267.031 258.065 278.969 258.065 290 261.804V272.469Z" fill="#2E5B6F"/>
<path d="M392 179.376C390.466 169.767 388.883 159.975 384.593 151.319C381.773 145.65 377.297 140.247 371.264 139.126C370.075 139.016 368.907 138.734 367.793 138.29C366.025 137.403 342.268 123.287 338.492 120.828C335.25 118.717 330.132 114.809 327.551 114.809C324.955 114.75 315 117.161 276.145 114C276.145 114 265.471 118.379 257.211 123.689C257.086 123.604 216.883 146.075 215.373 146.016C212.512 145.89 209.853 147.797 208.214 150.197C206.574 152.598 205.805 155.569 205 158.443C213.781 178.797 221.815 199.178 230.597 219.532C231.008 220.299 231.227 221.161 231.232 222.039C231.056 222.95 230.682 223.808 230.14 224.546C225.833 231.747 225.97 240.803 226.441 249.266C226.911 257.729 227.494 266.669 223.86 274.254C222.872 276.337 221.586 278.243 220.646 280.326C218.445 285.043 217.649 300.129 218.935 305.196L380.024 310C376.56 300.09 392 179.376 392 179.376Z" fill="#2E5B6F"/>
<path d="M191.265 221.399C190.947 223.823 190.915 226.278 191.17 228.71L193.456 263.267C193.671 266.525 193.882 269.774 194.172 273.023C194.721 279.328 195.54 285.583 196.557 291.829C196.58 292.716 196.936 293.557 197.548 294.168C198.159 294.779 198.976 295.109 199.818 295.086C209.881 297.328 220.278 297.238 230.548 296.628C246.219 295.707 286.313 293.965 288.762 290.615C291.212 287.266 289.784 281.848 286.59 279.14C283.396 276.431 230.487 269.828 230.487 269.828C231.004 265.516 232.564 261.455 234.043 257.36C236.701 250.098 239.183 242.598 239.23 234.819C239.278 227.039 236.494 218.86 230.44 214.404C225.46 210.745 219.048 210.066 212.98 210.217C208.564 210.35 200.936 209.237 196.903 211.054C193.711 212.533 191.861 218.11 191.265 221.399Z" fill="#FBBEBE"/>
<path d="M204.064 159.322C203.272 160.173 202.657 161.181 202.258 162.285C195.68 177.491 191.795 193.776 190.784 210.379C190.802 211.189 190.62 211.99 190.255 212.708C189.895 213.186 189.495 213.63 189.059 214.035C188.678 214.497 188.39 215.032 188.211 215.609C188.033 216.185 187.966 216.793 188.016 217.396C188.066 217.999 188.231 218.585 188.502 219.123C188.773 219.66 189.145 220.138 189.596 220.528C189.67 220.592 189.746 220.653 189.824 220.712C191.166 218.121 194.38 217.274 197.238 217.048C210.917 215.938 224.279 222.466 238 221.973C237.032 218.543 235.64 215.246 234.85 211.774C231.359 196.357 240.067 179.572 234.728 164.723C233.662 161.751 231.88 158.83 229.073 157.528C227.91 157.047 226.694 156.717 225.451 156.545C221.984 155.902 215.083 153.156 211.731 154.258C210.494 154.667 210.006 155.86 208.98 156.581C207.422 157.602 205.356 157.977 204.064 159.322Z" fill="#2E5B6F"/>
<path d="M392.097 211.044C388.064 209.244 380.436 210.347 376.02 210.215C369.952 210.065 363.54 210.738 358.56 214.362C352.506 218.776 349.722 226.878 349.77 234.584C349.818 242.289 352.299 249.719 354.957 256.912C356.436 260.968 357.996 264.991 358.513 269.262C358.513 269.262 305.603 275.803 302.41 278.485C299.216 281.168 297.788 286.535 300.238 289.852C302.687 293.17 379.119 296.501 389.182 294.281C390.024 294.303 390.841 293.976 391.452 293.371C392.064 292.766 392.42 291.933 392.443 291.055C393.46 284.868 394.279 278.672 394.828 272.426C395.118 269.208 395.329 265.99 395.544 262.763L397.83 228.533C398.085 226.124 398.053 223.692 397.735 221.291C397.139 218.033 395.289 212.509 392.097 211.044Z" fill="#FBBEBE"/>
<path d="M380.02 156.581C378.994 155.86 378.506 154.667 377.269 154.258C373.917 153.156 367.016 155.902 363.549 156.545C362.306 156.717 361.09 157.047 359.927 157.528C357.12 158.83 355.338 161.751 354.272 164.723C348.933 179.572 357.641 196.357 354.15 211.774C353.36 215.246 351.968 218.543 351 221.973C364.721 222.466 378.083 215.938 391.762 217.048C394.619 217.274 397.834 218.121 399.176 220.712C399.254 220.654 399.33 220.592 399.404 220.528C399.855 220.138 400.227 219.66 400.498 219.123C400.769 218.585 400.934 217.999 400.984 217.396C401.034 216.793 400.967 216.186 400.789 215.609C400.61 215.032 400.322 214.497 399.941 214.035C399.505 213.63 399.105 213.186 398.745 212.708C398.38 211.99 398.198 211.189 398.216 210.379C397.205 193.776 393.32 177.49 386.742 162.285C386.343 161.181 385.728 160.173 384.936 159.321C383.644 157.977 381.578 157.602 380.02 156.581Z" fill="#2E5B6F"/>
<path d="M283 297C289.627 297 295 291.18 295 284C295 276.82 289.627 271 283 271C276.373 271 271 276.82 271 284C271 291.18 276.373 297 283 297Z" fill="#FBBEBE"/>
<path d="M309.5 297C316.404 297 322 291.18 322 284C322 276.82 316.404 271 309.5 271C302.596 271 297 276.82 297 284C297 291.18 302.596 297 309.5 297Z" fill="#FBBEBE"/>
<path d="M383.715 312H218.285C216.354 311.998 214.502 311.196 213.136 309.77C211.771 308.344 211.002 306.411 211 304.394V199.606C211.002 197.589 211.771 195.656 213.136 194.23C214.502 192.804 216.354 192.002 218.285 192H383.715C385.646 192.002 387.498 192.804 388.864 194.23C390.229 195.656 390.998 197.589 391 199.606V304.394C390.998 306.411 390.229 308.344 388.864 309.77C387.498 311.196 385.646 311.998 383.715 312Z" fill="#1E3E4B"/>
<path d="M301 257C303.761 257 306 254.761 306 252C306 249.239 303.761 247 301 247C298.239 247 296 249.239 296 252C296 254.761 298.239 257 301 257Z" fill="white"/>
<path d="M572 292H17V309.039H49.8276V313H539.185V309.039H572V292Z" fill="#F1F1F1"/>
<path d="M82.0124 281.312C83.2111 267.746 86.5219 254.478 91.8127 242.039C93.2873 238.577 94.9103 235.192 96.6817 231.882C96.7705 231.709 96.792 231.507 96.7414 231.317C96.6909 231.128 96.5723 230.967 96.4107 230.867C96.2492 230.768 96.0572 230.739 95.8754 230.785C95.6936 230.832 95.5362 230.951 95.4363 231.117C88.9943 243.17 84.4813 256.254 82.0777 269.846C81.4091 273.641 80.9065 277.463 80.5701 281.312C80.4846 282.283 81.9274 282.277 82.0124 281.312Z" fill="#E6E6E6"/>
<path d="M100.175 234.313C105.22 234.313 109.31 230.015 109.31 224.714C109.31 219.412 105.22 215.114 100.175 215.114C95.1302 215.114 91.0405 219.412 91.0405 224.714C91.0405 230.015 95.1302 234.313 100.175 234.313Z" fill="#2E5B6F"/>
<path d="M82.9468 281.567C83.7245 272.766 85.8724 264.159 89.3047 256.089C90.2614 253.843 91.3143 251.647 92.4635 249.5C92.5211 249.387 92.535 249.256 92.5022 249.133C92.4694 249.01 92.3925 248.906 92.2877 248.841C92.1829 248.777 92.0584 248.758 91.9404 248.788C91.8225 248.818 91.7204 248.896 91.6556 249.003C87.4764 256.823 84.5486 265.311 82.9892 274.128C82.5554 276.591 82.2294 279.07 82.0112 281.567C81.9557 282.197 82.8917 282.193 82.9468 281.567Z" fill="#E6E6E6"/>
<path d="M94.7298 251.077C98.0026 251.077 100.656 248.289 100.656 244.849C100.656 241.41 98.0026 238.622 94.7298 238.622C91.4569 238.622 88.8037 241.41 88.8037 244.849C88.8037 248.289 91.4569 251.077 94.7298 251.077Z" fill="#2E5B6F"/>
<path d="M81.7659 280.98C77.2277 273.537 73.8835 265.362 71.8667 256.781C71.3065 254.392 70.8513 251.979 70.5009 249.544C70.4806 249.418 70.4147 249.305 70.3169 249.23C70.2192 249.154 70.0973 249.121 69.9769 249.138C69.8566 249.155 69.7473 249.221 69.672 249.321C69.5967 249.421 69.5613 249.548 69.5734 249.675C70.8547 258.541 73.5142 267.126 77.4453 275.087C78.5444 277.308 79.7387 279.474 81.0281 281.584C81.353 282.117 82.0887 281.509 81.7659 280.98Z" fill="#E6E6E6"/>
<path d="M69.5662 250.64C72.839 250.64 75.4922 247.851 75.4922 244.412C75.4922 240.973 72.839 238.185 69.5662 238.185C66.2933 238.185 63.6401 240.973 63.6401 244.412C63.6401 247.851 66.2933 250.64 69.5662 250.64Z" fill="#2E5B6F"/>
<path d="M63 287.286V274.714C63.0013 273.464 63.463 272.266 64.2839 271.382C65.1047 270.499 66.2176 270.001 67.3784 270H94.6216C95.7824 270.001 96.8953 270.499 97.7161 271.382C98.537 272.266 98.9987 273.464 99 274.714V287.286C98.9987 288.536 98.537 289.734 97.7161 290.618C96.8953 291.501 95.7824 291.999 94.6216 292H67.3784C66.2176 291.999 65.1047 291.501 64.2839 290.618C63.463 289.734 63.0013 288.536 63 287.286Z" fill="#F2F2F2"/>
<path d="M295.47 92.7575C320.12 92.7575 340.103 72.8993 340.103 48.4031C340.103 23.9068 320.12 4.0487 295.47 4.0487C270.82 4.0487 250.837 23.9068 250.837 48.4031C250.837 72.8993 270.82 92.7575 295.47 92.7575Z" fill="#2F2E41"/>
<path d="M295.475 101.514C320.127 101.514 340.112 80.6086 340.112 54.8206C340.112 29.0326 320.127 8.12727 295.475 8.12727C270.822 8.12727 250.837 29.0326 250.837 54.8206C250.837 80.6086 270.822 101.514 295.475 101.514Z" fill="#FEB8B8"/>
<path d="M263.751 35.9282C260.944 27.5265 252.676 47.1564 259.509 43.0865C266.343 39.0166 274.59 39.7907 281.9 42.473C288.043 44.7271 293.8 48.2206 299.793 50.9797C305.701 54.0686 312.155 55.4246 318.604 54.9321C324.997 54.0803 331.359 49.8514 333.975 42.9175C336.687 35.7301 334.843 26.9592 330.667 20.8253C326.224 14.8953 320.474 10.5355 314.057 8.23088C299.962 2.3728 283.681 2.20154 270.596 10.7168C257.511 19.2322 248.618 37.3633 251.323 54.7021" fill="#2F2E41"/>
<path d="M255.056 76.8104C247.884 76.8104 242.069 70.2342 242.069 62.122V54.7778C242.069 46.6656 247.884 40.0894 255.056 40.0894L255.056 76.8104Z" fill="#2E5B6F"/>
<path d="M337.946 40.0894C345.118 40.0894 350.932 46.6656 350.932 54.7778V62.122C350.932 70.2342 345.118 76.8104 337.946 76.8104V40.0894Z" fill="#2E5B6F"/>
<path d="M344.75 55.9319H342.69C342.69 26.376 321.43 2.33048 295.298 2.33048C269.167 2.33048 247.907 26.376 247.907 55.9319H245.847C245.847 25.0909 268.031 0 295.298 0C322.566 1.32152e-05 344.75 25.0909 344.75 55.9319Z" fill="#2E5B6F"/>
<defs>
<filter id="filter0_d_806_9" x="275" y="212" width="12" height="33" filterUnits="userSpaceOnUse" color-interpolation-filters="sRGB">
<feFlood flood-opacity="0" result="BackgroundImageFix"/>
<feColorMatrix in="SourceAlpha" type="matrix" values="0 0 0 0 0 0 0 0 0 0 0 0 0 0 0 0 0 0 127 0" result="hardAlpha"/>
<feOffset dy="4"/>
<feGaussianBlur stdDeviation="2"/>
<feComposite in2="hardAlpha" operator="out"/>
<feColorMatrix type="matrix" values="0 0 0 0 0 0 0 0 0 0 0 0 0 0 0 0 0 0 0.25 0"/>
<feBlend mode="normal" in2="BackgroundImageFix" result="effect1_dropShadow_806_9"/>
<feBlend mode="normal" in="SourceGraphic" in2="effect1_dropShadow_806_9" result="shape"/>
</filter>
<filter id="filter1_d_806_9" x="259" y="218" width="12" height="30" filterUnits="userSpaceOnUse" color-interpolation-filters="sRGB">
<feFlood flood-opacity="0" result="BackgroundImageFix"/>
<feColorMatrix in="SourceAlpha" type="matrix" values="0 0 0 0 0 0 0 0 0 0 0 0 0 0 0 0 0 0 127 0" result="hardAlpha"/>
<feOffset dy="4"/>
<feGaussianBlur stdDeviation="2"/>
<feComposite in2="hardAlpha" operator="out"/>
<feColorMatrix type="matrix" values="0 0 0 0 0 0 0 0 0 0 0 0 0 0 0 0 0 0 0.25 0"/>
<feBlend mode="normal" in2="BackgroundImageFix" result="effect1_dropShadow_806_9"/>
<feBlend mode="normal" in="SourceGraphic" in2="effect1_dropShadow_806_9" result="shape"/>
</filter>
<filter id="filter2_d_806_9" x="266" y="215" width="11" height="21" filterUnits="userSpaceOnUse" color-interpolation-filters="sRGB">
<feFlood flood-opacity="0" result="BackgroundImageFix"/>
<feColorMatrix in="SourceAlpha" type="matrix" values="0 0 0 0 0 0 0 0 0 0 0 0 0 0 0 0 0 0 127 0" result="hardAlpha"/>
<feOffset dy="4"/>
<feGaussianBlur stdDeviation="2"/>
<feComposite in2="hardAlpha" operator="out"/>
<feColorMatrix type="matrix" values="0 0 0 0 0 0 0 0 0 0 0 0 0 0 0 0 0 0 0.25 0"/>
<feBlend mode="normal" in2="BackgroundImageFix" result="effect1_dropShadow_806_9"/>
<feBlend mode="normal" in="SourceGraphic" in2="effect1_dropShadow_806_9" result="shape"/>
</filter>
</defs>
</svg>
