<svg width="25" height="25" viewBox="0 0 25 25" fill="none" xmlns="http://www.w3.org/2000/svg">
<path d="M23.0609 0H1.86981C0.831025 0 0 0.833333 0 1.80556V23.1944C0 24.1667 0.831025 25 1.86981 25H23.1302C24.169 25 25 24.1667 25 23.1944V1.80556C24.9307 0.833333 24.0997 0 23.0609 0ZM7.40997 21.3194H3.67036V9.375H7.34072V21.3194H7.40997ZM5.54017 7.70833C4.36288 7.70833 3.39335 6.73611 3.39335 5.55556C3.39335 4.375 4.36288 3.47222 5.54017 3.47222C6.71745 3.47222 7.68698 4.44444 7.68698 5.625C7.68698 6.80556 6.71745 7.70833 5.54017 7.70833ZM21.2604 21.3194H17.59V15.4861C17.59 14.0972 17.59 12.2917 15.651 12.2917C13.7119 12.2917 13.4349 13.8194 13.4349 15.3472V21.25H9.69529V9.375H13.2271V10.9722H13.2964C13.7812 10 15.0277 9.02778 16.8283 9.02778C20.5679 9.02778 21.2604 11.5278 21.2604 14.7222V21.3194Z" fill="#C4C4C4"/>
</svg>
